<svg width="20" height="16" viewBox="0 0 20 16" fill="none" xmlns="http://www.w3.org/2000/svg">
<path d="M17.3333 0.666748H2.66659C1.65825 0.666748 0.833252 1.49175 0.833252 2.50008V13.5001C0.833252 14.5084 1.65825 15.3334 2.66659 15.3334H17.3333C18.3416 15.3334 19.1666 14.5084 19.1666 13.5001V2.50008C19.1666 1.49175 18.3416 0.666748 17.3333 0.666748ZM16.9666 4.56258L10.9716 8.31175C10.3758 8.68758 9.62409 8.68758 9.02825 8.31175L3.03325 4.56258C2.94134 4.51098 2.86084 4.44127 2.79665 4.35766C2.73246 4.27406 2.68589 4.17829 2.65978 4.07617C2.63367 3.97405 2.62855 3.86769 2.64473 3.76353C2.66091 3.65937 2.69806 3.55958 2.75393 3.47019C2.80979 3.3808 2.88322 3.30368 2.96975 3.24349C3.05629 3.1833 3.15413 3.1413 3.25737 3.12002C3.36061 3.09874 3.46709 3.09863 3.57038 3.1197C3.67366 3.14077 3.77159 3.18257 3.85825 3.24258L9.99992 7.08342L16.1416 3.24258C16.2282 3.18257 16.3262 3.14077 16.4295 3.1197C16.5327 3.09863 16.6392 3.09874 16.7425 3.12002C16.8457 3.1413 16.9436 3.1833 17.0301 3.24349C17.1166 3.30368 17.19 3.3808 17.2459 3.47019C17.3018 3.55958 17.3389 3.65937 17.3551 3.76353C17.3713 3.86769 17.3662 3.97405 17.3401 4.07617C17.3139 4.17829 17.2674 4.27406 17.2032 4.35766C17.139 4.44127 17.0585 4.51098 16.9666 4.56258Z" fill="#FEF2EA"/>
</svg>
