<svg width="48" height="48" viewBox="0 0 48 48" fill="none" xmlns="http://www.w3.org/2000/svg">
<g clip-path="url(#clip0_0_378)">
<path d="M35.347 1.56078C34.001 0.87602 32.3545 1.41256 31.67 2.75912L11.3312 42.7624C10.6467 44.1087 11.1832 45.7548 12.5296 46.4394C12.9127 46.6349 13.3366 46.7368 13.7667 46.737C14.7633 46.737 15.7239 46.1904 16.2066 45.2411L36.5453 5.23783C37.2299 3.89146 36.6934 2.24536 35.347 1.56078ZM20.7431 14.7341C20.7431 9.01515 16.0903 4.36237 10.3714 4.36237C4.65278 4.36237 0 9.01515 0 14.7341C0 20.4529 4.65278 25.1056 10.3715 25.1056C16.0905 25.1056 20.7431 20.4529 20.7431 14.7341ZM10.3715 19.6363C7.66859 19.6363 5.46936 17.4371 5.46936 14.7341C5.46936 12.031 7.66859 9.83173 10.3715 9.83173C13.0747 9.83173 15.2739 12.0308 15.2739 14.7341C15.2737 17.4371 13.0747 19.6363 10.3715 19.6363ZM37.6285 22.8947C31.9095 22.8947 27.2567 27.5475 27.2567 33.2663C27.2567 38.9851 31.9093 43.6378 37.6285 43.6378C43.3472 43.6378 48 38.9852 48 33.2663C48 27.5473 43.3474 22.8947 37.6285 22.8947ZM37.6285 38.1683C34.9253 38.1683 32.7261 35.9691 32.7261 33.2661C32.7261 30.5632 34.9253 28.3639 37.6285 28.3639C40.3314 28.3639 42.5306 30.5632 42.5306 33.2661C42.5306 35.9691 40.3316 38.1683 37.6285 38.1683Z" fill="white"/>
</g>
<defs>
<clipPath id="clip0_0_378">
<rect width="48" height="48" fill="white"/>
</clipPath>
</defs>
</svg>
