<svg width="22" height="22" viewBox="0 0 22 22" fill="none" xmlns="http://www.w3.org/2000/svg">
<path d="M10.9375 8.23168L9.42138 9.59201C9.6218 10.278 9.90176 10.9382 10.2555 11.5592C10.6246 12.1756 11.0692 12.7435 11.5792 13.2495L13.5427 12.6445C14.6427 12.3053 15.8435 12.6537 16.575 13.5245L17.6934 14.8555C18.1462 15.3898 18.3732 16.0794 18.3263 16.7782C18.2794 17.477 17.9623 18.1301 17.4422 18.5992C15.618 20.2638 12.8094 20.8267 10.7065 19.1748C8.85757 17.7205 7.29368 15.9366 6.09388 13.9132C4.89102 11.8997 4.08569 9.67414 3.72155 7.35718C3.31821 4.75018 5.22671 2.66385 7.60638 1.95251C9.02538 1.52718 10.5397 2.25685 11.0604 3.61718L11.6745 5.22135C12.0779 6.27735 11.7882 7.46901 10.9375 8.23168Z" fill="#FEF2EA"/>
</svg>
