<svg width="48" height="42" viewBox="0 0 48 42" fill="none" xmlns="http://www.w3.org/2000/svg">
<path d="M41.0709 22.6237H37.3588C37.7372 23.6597 37.9439 24.7776 37.9439 25.9429V39.9725C37.9439 40.4584 37.8593 40.9247 37.7055 41.3584H43.8425C46.1349 41.3584 47.9999 39.4933 47.9999 37.2009V29.5527C48 25.7321 44.8916 22.6237 41.0709 22.6237ZM10.0561 25.943C10.0561 24.7776 10.2628 23.6598 10.6412 22.6238H6.92906C3.10837 22.6238 0 25.7322 0 29.5529V37.2011C0 39.4935 1.86497 41.3585 4.15744 41.3585H10.2945C10.1365 40.9136 10.0559 40.4448 10.0561 39.9726V25.943ZM28.2432 19.0139H19.7568C15.9361 19.0139 12.8277 22.1223 12.8277 25.943V39.9726C12.8277 40.7379 13.4482 41.3585 14.2135 41.3585H33.7865C34.5518 41.3585 35.1723 40.738 35.1723 39.9726V25.943C35.1723 22.1223 32.0639 19.0139 28.2432 19.0139ZM24 0.641235C19.4051 0.641235 15.6669 4.37942 15.6669 8.97439C15.6669 12.0911 17.3872 14.8131 19.9276 16.2423C21.1326 16.9201 22.5217 17.3075 24 17.3075C25.4782 17.3075 26.8674 16.9201 28.0724 16.2423C30.6129 14.8131 32.3331 12.091 32.3331 8.97439C32.3331 4.37952 28.5949 0.641235 24 0.641235ZM9.36731 8.40833C5.93091 8.40833 3.13528 11.204 3.13528 14.6404C3.13528 18.0768 5.93091 20.8724 9.36731 20.8724C10.2118 20.8731 11.0475 20.7012 11.8231 20.3673C13.1268 19.806 14.2017 18.8124 14.8669 17.5679C15.3487 16.6674 15.6004 15.6617 15.5993 14.6404C15.5993 11.204 12.8037 8.40833 9.36731 8.40833ZM38.6327 8.40833C35.1963 8.40833 32.4007 11.204 32.4007 14.6404C32.3996 15.6617 32.6513 16.6674 33.1331 17.5679C33.7983 18.8125 34.8732 19.8061 36.1769 20.3673C36.9525 20.7012 37.7882 20.8731 38.6327 20.8724C42.0691 20.8724 44.8647 18.0768 44.8647 14.6404C44.8647 11.204 42.0691 8.40833 38.6327 8.40833Z" fill="white"/>
</svg>
