<svg width="48" height="48" viewBox="0 0 48 48" fill="none" xmlns="http://www.w3.org/2000/svg">
<g clip-path="url(#clip0_0_401)">
<g clip-path="url(#clip1_0_401)">
<path d="M46.2951 6.62141C45.2637 6.52738 44.3516 7.28722 44.2576 8.31847L44.0091 11.0437C39.7942 4.42438 32.4776 -6.10352e-05 23.9999 -6.10352e-05C14.8798 -6.10352e-05 6.84252 5.20513 2.85271 13.0175C2.38171 13.9397 2.74752 15.0691 3.66974 15.5401C4.59215 16.0111 5.72137 15.6454 6.19237 14.7231C9.56896 8.11147 16.3496 3.74994 23.9999 3.74994C30.9727 3.74994 37.2654 7.38097 40.8705 13.0694L38.197 11.16C37.3543 10.5583 36.1833 10.7534 35.5815 11.5961C34.9797 12.4388 35.1749 13.6097 36.0175 14.2116L44.1245 20.0017C45.3127 20.8487 46.9516 20.0733 47.0815 18.6462L47.9919 8.65897C48.0861 7.62763 47.3263 6.71544 46.2951 6.62141ZM44.3301 32.4598C43.4077 31.9888 42.2784 32.3546 41.8074 33.2768C38.4308 39.8884 31.6502 44.2499 23.9999 44.2499C17.0271 44.2499 10.7344 40.6189 7.1293 34.9304L9.80277 36.8398C10.6455 37.4416 11.8164 37.2464 12.4183 36.4038C13.0201 35.5611 12.8249 34.3902 11.9823 33.7883L3.87524 27.9982C2.70159 27.1597 1.04952 27.9118 0.918272 29.3537L0.00786635 39.3409C-0.0861649 40.3722 0.673679 41.2843 1.70483 41.3784C2.7374 41.4722 3.64837 40.7116 3.7423 39.6813L3.99074 36.9561C8.20555 43.5755 15.5222 47.9999 23.9999 47.9999C33.12 47.9999 41.1573 42.7948 45.1471 34.9824C45.6181 34.0602 45.2523 32.9308 44.3301 32.4598Z" fill="white"/>
</g>
<path d="M16.2192 34.1407C16.5636 35.2184 17.5626 36 18.7388 36H31.2611C32.4373 36 33.4363 35.2184 33.7807 34.1407H16.2192ZM33.1338 15.8562L30.0535 12.7759C29.9281 12.6504 29.7905 12.5377 29.6428 12.4393V16.25C29.6429 16.2917 29.6596 16.3317 29.6891 16.3611C29.7187 16.3906 29.7587 16.4071 29.8004 16.4071H33.5572C33.4428 16.2078 33.3007 16.0231 33.1338 15.8562Z" fill="white"/>
<path d="M33.9089 17.8136H29.8C28.9374 17.8136 28.236 17.1122 28.236 16.25V12.0009C28.2177 12 28.1989 12 28.1807 12H18.7383C17.2783 12 16.0903 13.188 16.0903 14.6484V21.8718H33.9089L33.9089 17.8136ZM25.0249 26.3857H24.3817V29.7027H25.0249C25.4585 29.7027 25.6753 29.4619 25.6753 28.98V27.1084C25.6752 26.6267 25.4584 26.3857 25.0249 26.3857ZM20.9854 26.3857H20.27V27.9105H20.9854C21.419 27.9105 21.6358 27.6697 21.6358 27.1878V27.1084C21.6357 26.6267 21.4189 26.3857 20.9854 26.3857Z" fill="white"/>
<path d="M34.0006 23.2784H15.999C15.0192 23.2784 14.2222 24.0754 14.2222 25.0552V30.9573C14.2222 31.937 15.0192 32.7341 15.999 32.7341H34.0006C34.9803 32.7341 35.7774 31.937 35.7774 30.9573V25.0552C35.7774 24.0754 34.9803 23.2784 34.0006 23.2784ZM22.7633 27.1012C22.7633 27.6746 22.6007 28.0973 22.2755 28.3694C21.9503 28.6416 21.5203 28.7777 20.9856 28.7777H20.2702V30.3386C20.2702 30.4495 20.2147 30.535 20.1039 30.5951C19.9931 30.6554 19.8606 30.6855 19.7065 30.6855C19.5522 30.6855 19.4198 30.6554 19.309 30.5951C19.1981 30.535 19.1428 30.4495 19.1428 30.3386V25.7426C19.1428 25.6511 19.1813 25.5716 19.2584 25.5041C19.3354 25.4367 19.4365 25.4029 19.5619 25.4029H21.0578C21.5732 25.4029 21.9864 25.5366 22.2971 25.8041C22.6078 26.0714 22.7632 26.4918 22.7632 27.065V27.1012H22.7633ZM26.8028 28.9801C26.8028 29.5679 26.6413 29.999 26.3186 30.2736C25.9958 30.5482 25.5646 30.6856 25.0251 30.6856H23.746C23.6014 30.6856 23.4834 30.6519 23.3919 30.5844C23.3004 30.517 23.2546 30.4375 23.2546 30.3459V25.7426C23.2546 25.6512 23.3003 25.5717 23.3919 25.5042C23.4834 25.4368 23.6015 25.403 23.746 25.403H25.0251C25.5646 25.403 25.9958 25.5404 26.3186 25.815C26.6413 26.0896 26.8028 26.5208 26.8028 27.1085V28.9801ZM30.7664 26.2413C30.7061 26.3377 30.623 26.3859 30.5171 26.3859H28.6455V27.6071H29.7367C29.8426 27.6071 29.9257 27.6505 29.986 27.7372C30.0462 27.8239 30.0763 27.9276 30.0763 28.0479C30.0763 28.1588 30.0474 28.2575 29.9896 28.3442C29.9318 28.4309 29.8474 28.4742 29.7367 28.4742H28.6455V30.3386C28.6455 30.4495 28.5901 30.535 28.4793 30.5952C28.3684 30.6555 28.236 30.6855 28.0818 30.6855C27.9276 30.6855 27.7952 30.6555 27.6843 30.5952C27.5735 30.535 27.5181 30.4495 27.5181 30.3386V25.7499C27.5181 25.6391 27.5662 25.5536 27.6627 25.4933C27.759 25.4331 27.8747 25.403 28.0095 25.403H30.5171C30.6278 25.403 30.7122 25.4512 30.77 25.5476C30.8278 25.644 30.8567 25.7571 30.8567 25.8872C30.8567 26.0269 30.8266 26.1449 30.7664 26.2413Z" fill="white"/>
</g>
<defs>
<clipPath id="clip0_0_401">
<rect width="48" height="48" fill="white"/>
</clipPath>
<clipPath id="clip1_0_401">
<rect width="48" height="48" fill="white"/>
</clipPath>
</defs>
</svg>
