<svg width="46" height="46" viewBox="0 0 46 46" fill="none" xmlns="http://www.w3.org/2000/svg">
<path d="M44.0241 23.544C44.6961 24.216 45.0588 25.1013 45.0588 26.04C45.0588 26.9787 44.6961 27.864 44.0241 28.536C42.6481 29.912 40.4081 29.912 39.0321 28.536C38.4454 27.9493 38.0828 27.1813 38.0188 26.3707C38.0081 26.2427 37.9548 26.1253 37.8588 26.0293L37.1441 25.3147C36.9308 25.1013 36.5788 25.1013 36.3654 25.3147L31.2348 30.4453L25.9014 25.112C25.7948 25.0053 25.6561 24.952 25.5174 24.952C25.3788 24.952 25.2401 25.0053 25.1334 25.112L24.0561 26.1893C23.9708 26.2853 23.9068 26.4027 23.8961 26.5307C23.8214 27.352 23.4588 28.12 22.8721 28.696C22.2001 29.368 21.3148 29.7307 20.3761 29.7307C19.4374 29.7307 18.5521 29.368 17.8801 28.696C16.5041 27.32 16.5041 25.08 17.8801 23.704C18.4561 23.128 19.2348 22.7547 20.0454 22.68C20.1734 22.6693 20.2908 22.616 20.3868 22.52L21.4641 21.4426C21.5708 21.336 21.6241 21.1973 21.6241 21.0587C21.6241 20.9093 21.5601 20.7707 21.4641 20.6747L15.5654 14.776L20.3121 10.0293L20.8668 10.584C21.0054 11.576 21.4641 12.5147 22.1788 13.2293C23.0534 14.104 24.2161 14.584 25.4534 14.584C26.6908 14.584 27.8534 14.104 28.7281 13.2293C30.5308 11.4267 30.5308 8.49332 28.7281 6.69065C28.0134 5.97598 27.0854 5.51732 26.0828 5.37865L25.5281 4.82398L30.2534 0.0666504L35.8748 5.68798C35.9814 5.79465 36.1201 5.84798 36.2588 5.84798C36.4081 5.84798 36.5468 5.79465 36.6428 5.68798L37.3574 4.97332C37.4428 4.88798 37.5068 4.75998 37.5174 4.63198C37.5921 3.81065 37.9548 3.04265 38.5308 2.46665C39.2028 1.79465 40.0774 1.43198 41.0268 1.43198C41.9654 1.43198 42.8508 1.79465 43.5228 2.46665C44.8988 3.84265 44.8988 6.08265 43.5228 7.45865C42.9361 8.03465 42.1681 8.39732 41.3574 8.48265C41.2294 8.49332 41.1121 8.54665 41.0161 8.64265L40.3014 9.35732C40.0881 9.57065 40.0881 9.92265 40.3014 10.136L45.9334 15.7467L40.8028 20.888C40.6961 20.9946 40.6428 21.1333 40.6428 21.272C40.6428 21.4213 40.6961 21.56 40.8028 21.656L41.5174 22.3707C41.6134 22.4667 41.7308 22.52 41.8588 22.5307C42.6694 22.6053 43.4374 22.968 44.0241 23.544Z" fill="white"/>
<path d="M28.6856 39.1707C29.3576 39.8427 29.7202 40.728 29.7202 41.6667C29.7202 42.6053 29.3469 43.4907 28.6856 44.1627C27.3096 45.5387 25.0696 45.5387 23.6936 44.1627C23.1176 43.576 22.7549 42.808 22.6696 41.9973C22.6589 41.8693 22.6056 41.752 22.5096 41.656L21.6456 40.792C21.5389 40.6853 21.4002 40.632 21.2616 40.632C21.1122 40.632 20.9736 40.6853 20.8776 40.792L15.7469 45.9333L0.0668945 30.2533L5.20823 25.1227C5.42156 24.9093 5.42156 24.5573 5.20823 24.344L4.34423 23.48C4.25889 23.384 4.13089 23.3307 4.00289 23.32C3.18156 23.2453 2.41356 22.8827 1.83756 22.296C0.461561 20.92 0.461561 18.68 1.83756 17.304C2.50956 16.632 3.38423 16.2693 4.33356 16.2693C5.27223 16.2693 6.15756 16.632 6.82956 17.304C7.40556 17.88 7.76823 18.6587 7.85356 19.4693C7.86423 19.5973 7.91756 19.7147 8.01356 19.8107L8.87756 20.6747C9.09089 20.888 9.44289 20.888 9.65623 20.6747L14.7976 15.544L20.3122 21.0587L19.7576 21.6133C18.7656 21.752 17.8269 22.2107 17.1122 22.9253C15.3096 24.728 15.3096 27.6613 17.1122 29.464C17.9869 30.3387 19.1496 30.8187 20.3869 30.8187C21.6242 30.8187 22.7869 30.3387 23.6616 29.464C24.3762 28.7493 24.8349 27.8213 24.9736 26.8187L25.5282 26.264L30.4776 31.2133L25.3469 36.344C25.2402 36.4507 25.1869 36.5893 25.1869 36.728C25.1869 36.8773 25.2402 37.016 25.3469 37.112L26.2109 37.976C26.2962 38.072 26.4242 38.1253 26.5522 38.136C27.3309 38.232 28.0989 38.5947 28.6856 39.1707Z" fill="white"/>
</svg>
