<svg width="48" height="48" viewBox="0 0 48 48" fill="none" xmlns="http://www.w3.org/2000/svg">
<path d="M44.6401 30.0343L31.3372 8.77713C29.6915 6.30856 26.9486 4.79999 24.0001 4.79999C21.0515 4.79999 18.3086 6.30856 16.7315 8.8457L3.42864 30.1028C1.71436 32.7771 1.64578 36.0686 3.22293 38.8114C4.7315 41.6228 7.54293 43.2686 10.7658 43.2686H37.4401C40.5944 43.2686 43.4058 41.6228 44.9829 38.8114C46.3544 36 46.2858 32.7771 44.6401 30.0343ZM25.7144 31.4743C25.7144 32.4343 24.9601 33.1886 24.0001 33.1886C23.0401 33.1886 22.2858 32.4343 22.2858 31.4743V30.8571C22.2858 29.8971 23.0401 29.1428 24.0001 29.1428C24.9601 29.1428 25.7144 29.8971 25.7144 30.8571V31.4743ZM25.7144 25.7828C25.7144 26.7428 24.9601 27.4971 24.0001 27.4971C23.0401 27.4971 22.2858 26.7428 22.2858 25.7828V19.0628C22.2858 18.1028 23.0401 17.3486 24.0001 17.3486C24.9601 17.3486 25.7144 18.1028 25.7144 19.0628V25.7828Z" fill="white"/>
</svg>
