<svg width="48" height="48" viewBox="0 0 48 48" fill="none" xmlns="http://www.w3.org/2000/svg">
<g clip-path="url(#clip0_0_538)">
<path d="M41.5481 30.0562L32.6906 26.0869C32.2893 25.9149 31.8514 25.8458 31.4166 25.8857C30.9818 25.9256 30.5639 26.0734 30.2006 26.3156C30.1638 26.3394 30.1287 26.3657 30.0956 26.3944L25.4662 30.3319C25.4182 30.358 25.3647 30.3727 25.3101 30.3747C25.2554 30.3766 25.201 30.3658 25.1512 30.3431C22.1756 28.9069 19.0931 25.8431 17.6512 22.9087C17.6272 22.8597 17.6147 22.8058 17.6147 22.7512C17.6147 22.6966 17.6272 22.6428 17.6512 22.5937L21.6019 17.9062C21.6303 17.8716 21.6566 17.8353 21.6806 17.7975C21.9195 17.4328 22.0637 17.0144 22.1004 16.58C22.1371 16.1456 22.065 15.7089 21.8906 15.3094L17.9494 6.46686C17.7255 5.94488 17.3385 5.50956 16.8462 5.22626C16.354 4.94295 15.7831 4.82693 15.2194 4.89561C12.7692 5.21773 10.5201 6.42099 8.89241 8.28055C7.26474 10.1401 6.36986 12.5287 6.37499 15C6.37499 29.6812 18.3187 41.625 33 41.625C35.4712 41.6297 37.8595 40.7347 39.719 39.1071C41.5785 37.4795 42.7819 35.2306 43.1044 32.7806C43.1729 32.2195 43.0585 31.6512 42.7781 31.1603C42.4977 30.6695 42.0663 30.2822 41.5481 30.0562ZM33 39.375C19.56 39.375 8.62499 28.44 8.62499 15C8.61872 13.0761 9.31312 11.2157 10.5785 9.7665C11.8438 8.31726 13.5935 7.37827 15.5006 7.12499H15.5437C15.6193 7.1264 15.6927 7.1506 15.7542 7.19443C15.8158 7.23826 15.8627 7.29967 15.8887 7.37061L19.845 16.2037C19.8676 16.2528 19.8792 16.3063 19.8792 16.3603C19.8792 16.4143 19.8676 16.4677 19.845 16.5169L15.8869 21.2156C15.8575 21.2493 15.8305 21.285 15.8062 21.3225C15.5586 21.7006 15.4127 22.1362 15.3828 22.5873C15.3529 23.0383 15.44 23.4894 15.6356 23.8969C17.2987 27.3019 20.73 30.7069 24.1725 32.37C24.5824 32.5645 25.0357 32.6495 25.4881 32.6166C25.9406 32.5838 26.3769 32.4342 26.7544 32.1825C26.79 32.1581 26.8256 32.1319 26.8594 32.1037L31.4869 28.1662C31.5326 28.1417 31.583 28.1273 31.6348 28.1241C31.6866 28.1208 31.7385 28.1288 31.7869 28.1475L40.6462 32.1169C40.7186 32.1477 40.7795 32.2005 40.8202 32.2678C40.8609 32.3351 40.8794 32.4135 40.8731 32.4919C40.6212 34.3999 39.6831 36.1509 38.2341 37.4176C36.7852 38.6844 34.9246 39.3802 33 39.375Z" fill="white"/>
</g>
<defs>
<clipPath id="clip0_0_538">
<rect width="48" height="48" fill="white"/>
</clipPath>
</defs>
</svg>
