<svg width="59" height="58" viewBox="0 0 59 58" fill="none" xmlns="http://www.w3.org/2000/svg">
<circle cx="38.5" cy="38" r="20" fill="#F47B34" fill-opacity="0.08"/>
<g clip-path="url(#clip0_0_546)">
<path d="M44 42H5C2.51 42 0.5 39.99 0.5 37.5V10.5C0.5 8.01 2.51 6 5 6H44C46.49 6 48.5 8.01 48.5 10.5V37.5C48.5 39.99 46.49 42 44 42ZM5 9C4.16 9 3.5 9.66 3.5 10.5V37.5C3.5 38.34 4.16 39 5 39H44C44.84 39 45.5 38.34 45.5 37.5V10.5C45.5 9.66 44.84 9 44 9H5Z" fill="#F47B34"/>
<path d="M24.4998 28.88C22.3998 28.88 20.4798 28.04 19.0398 26.51L3.28977 9.76999C2.71977 9.16999 2.74977 8.20999 3.34977 7.63999C3.94977 7.06999 4.90977 7.09999 5.47977 7.69999L21.2298 24.44C22.9398 26.27 26.0598 26.27 27.7698 24.44L43.5198 7.72999C44.0898 7.12999 45.0498 7.09999 45.6498 7.66999C46.2498 8.23999 46.2798 9.19999 45.7098 9.79999L29.9598 26.54C28.5198 28.07 26.5998 28.91 24.4998 28.91V28.88Z" fill="#F47B34"/>
</g>
<defs>
<clipPath id="clip0_0_546">
<rect width="48" height="48" fill="white" transform="translate(0.5)"/>
</clipPath>
</defs>
</svg>
